<svg width="31" height="31" viewBox="0 0 31 31" fill="none" xmlns="http://www.w3.org/2000/svg">
<path d="M15.5 0.5C16.5355 0.5 17.375 1.33947 17.375 2.375V13.625H28.625C29.6605 13.625 30.5 14.4645 30.5 15.5C30.5 16.5355 29.6605 17.375 28.625 17.375H17.375V28.625C17.375 29.6605 16.5355 30.5 15.5 30.5C14.4645 30.5 13.625 29.6605 13.625 28.625V17.375H2.375C1.33947 17.375 0.5 16.5355 0.5 15.5C0.5 14.4645 1.33947 13.625 2.375 13.625H13.625V2.375C13.625 1.33947 14.4645 0.5 15.5 0.5Z" fill="#1894D7"/>
</svg>
