<?xml version="1.0" standalone="no"?>
<!DOCTYPE svg PUBLIC "-//W3C//DTD SVG 20010904//EN"
 "http://www.w3.org/TR/2001/REC-SVG-20010904/DTD/svg10.dtd">
<svg version="1.0" xmlns="http://www.w3.org/2000/svg"
 width="384.000000pt" height="384.000000pt" viewBox="0 0 384.000000 384.000000"
 preserveAspectRatio="xMidYMid meet">
<metadata>
Created by potrace 1.14, written by Peter Selinger 2001-2017
</metadata>
<g transform="translate(0.000000,384.000000) scale(0.100000,-0.100000)"
fill="#000000" stroke="none">
<path d="M1125 2814 c-199 -35 -402 -117 -516 -207 -68 -54 -204 -259 -214
-322 -17 -110 -33 -272 -28 -288 3 -11 6 -29 8 -40 1 -12 6 -38 10 -58 4 -20
0 -87 -10 -154 -18 -131 -53 -234 -111 -330 -43 -69 -52 -128 -34 -204 20 -82
78 -120 292 -190 153 -49 188 -51 250 -12 75 48 96 108 58 166 -32 49 -26 68
41 124 62 52 79 60 79 39 0 -6 16 -44 36 -84 39 -80 105 -149 151 -160 15 -4
43 -16 62 -27 68 -41 260 -33 337 14 18 11 39 35 48 53 36 75 10 131 -78 170
-28 13 -64 38 -79 55 -23 27 -27 42 -27 91 l0 58 38 -14 c49 -17 80 -17 132 1
23 8 44 15 46 15 1 0 -4 -12 -12 -27 -19 -37 -18 -42 7 -36 22 6 22 0 1 -56
-4 -10 -1 -13 12 -8 15 6 16 2 10 -28 -4 -23 -2 -35 5 -35 6 0 11 -19 11 -46
0 -25 4 -43 9 -40 9 6 26 -45 36 -112 15 -92 113 -157 283 -188 176 -31 285 8
285 104 0 54 -28 99 -91 146 -32 24 -52 46 -52 59 0 31 58 131 100 172 38 37
38 37 50 15 9 -17 14 -19 26 -9 11 9 14 8 14 -7 0 -16 2 -16 9 -4 7 10 13 2
22 -33 11 -46 12 -47 30 -31 17 16 19 15 28 -9 7 -17 16 -25 25 -21 9 3 17 -3
21 -16 5 -16 10 -19 20 -10 11 9 17 5 30 -19 15 -30 35 -42 35 -21 0 22 20 8
54 -39 44 -60 120 -112 207 -141 81 -28 207 -24 282 9 119 52 177 116 177 196
0 83 -65 130 -210 150 -25 3 -55 13 -67 23 -36 28 -152 231 -174 306 -20 67
-20 69 -2 86 10 9 67 34 127 55 104 36 181 74 235 116 28 22 54 30 241 70 163
35 221 58 255 103 31 40 46 107 34 150 -11 40 -44 71 -129 121 -35 22 -87 60
-115 85 -87 79 -146 107 -320 152 -67 17 -129 21 -380 28 -229 6 -328 13 -420
29 -107 19 -131 20 -235 10 -175 -17 -344 -7 -555 35 -197 39 -279 43 -410 20z
m327 -84 c285 -59 443 -71 645 -49 86 9 114 8 228 -12 103 -17 183 -22 390
-25 271 -4 362 -14 486 -55 92 -30 136 -55 187 -105 24 -24 81 -66 127 -94
107 -64 111 -70 96 -120 -6 -22 -16 -40 -20 -40 -5 0 -2 19 6 42 16 48 7 63
-30 49 -17 -7 -27 -18 -27 -31 0 -23 17 -61 32 -71 5 -3 2 -9 -7 -12 -9 -4
-13 -3 -10 3 3 6 -1 10 -10 10 -11 0 -15 -5 -12 -14 5 -11 -16 -19 -91 -36
-110 -23 -268 -59 -295 -67 -10 -2 -29 -17 -44 -31 -20 -21 -24 -23 -19 -8 4
12 -10 4 -39 -22 -50 -47 -60 -51 -52 -22 6 25 -7 26 -25 3 -7 -10 -24 -27
-37 -38 l-24 -20 8 25 c7 23 5 22 -34 -13 -48 -43 -55 -45 -45 -15 6 20 2 18
-32 -11 -34 -31 -38 -32 -44 -15 -6 17 -8 17 -19 -4 -14 -26 -33 -30 -25 -4 4
12 0 10 -15 -7 -23 -26 -26 -52 -10 -83 6 -12 21 -58 33 -102 26 -98 149 -312
201 -352 24 -18 57 -29 112 -38 88 -14 117 -27 134 -58 l11 -21 -33 20 c-78
48 -143 46 -155 -4 -8 -35 -32 -62 -62 -74 -37 -14 -59 4 -66 55 -8 49 -17 56
-82 56 -36 0 -47 5 -60 26 -9 14 -23 23 -30 20 -7 -3 -15 2 -18 10 -3 8 -12
14 -21 14 -8 0 -15 8 -15 18 0 11 -9 27 -20 37 -11 10 -20 26 -20 37 0 10 -6
18 -13 18 -21 0 -38 81 -25 122 6 20 8 55 4 82 -8 53 -26 59 -63 24 -16 -14
-23 -17 -23 -8 0 8 -14 0 -34 -19 -24 -23 -35 -29 -39 -19 -4 9 -12 5 -28 -15
-12 -16 -31 -32 -41 -36 -11 -4 -67 -54 -124 -112 -120 -119 -174 -208 -174
-286 0 -58 13 -80 57 -98 40 -17 73 -43 73 -57 0 -5 -9 -6 -20 -3 -16 5 -20 2
-20 -15 0 -17 -4 -20 -22 -15 -38 12 -43 11 -44 -10 -1 -11 -2 -23 -3 -26 0
-4 -46 2 -101 12 -101 18 -188 49 -202 72 -4 7 -5 43 -2 80 3 44 1 74 -6 82
-20 25 -18 68 6 147 20 63 22 81 12 97 -21 33 6 93 77 173 57 64 80 108 58
108 -5 0 -48 -17 -98 -39 -189 -81 -311 -81 -393 -1 -30 28 -43 54 -66 128
-15 51 -37 103 -48 115 l-19 22 7 -35 c11 -51 7 -116 -12 -194 -16 -65 -22
-74 -86 -137 -44 -42 -64 -69 -56 -72 18 -6 15 -8 -87 -61 -149 -77 -345 -236
-345 -281 0 -14 13 -34 33 -50 44 -38 57 -60 28 -52 -18 4 -20 2 -15 -19 7
-28 -3 -30 -34 -8 -24 17 -27 13 -12 -17 9 -17 7 -19 -17 -19 -15 0 -90 21
-166 46 -113 38 -146 53 -178 84 -58 55 -55 96 16 232 30 58 64 139 74 179 27
106 48 316 34 338 -6 10 -9 30 -6 45 4 17 1 31 -7 36 -10 6 -10 15 -2 38 6 17
8 39 5 50 -2 10 3 36 12 58 10 25 12 40 5 42 -6 2 -2 18 11 39 16 25 19 37 10
42 -15 9 87 178 137 229 121 121 374 212 652 235 42 4 50 3 172 -23z m-101
-1415 c11 -24 28 -35 89 -56 41 -14 75 -30 77 -36 2 -5 -33 -27 -78 -48 -100
-47 -174 -52 -214 -15 -42 39 -34 76 54 264 l46 100 6 -90 c3 -49 12 -102 20
-119z"/>
<path d="M2909 2544 c-42 -17 -63 -53 -50 -86 10 -28 92 -88 118 -88 13 0 7
10 -24 36 -28 23 -43 44 -43 59 0 29 46 68 72 60 22 -8 23 -1 2 19 -19 19 -29
19 -75 0z"/>
<path d="M2962 2488 c-25 -25 -10 -67 16 -45 12 9 16 9 19 0 5 -15 33 -18 33
-4 0 11 -40 61 -49 61 -4 0 -12 -5 -19 -12z"/>
<path d="M3240 2405 c-15 -18 -13 -20 16 -29 11 -3 28 0 40 9 16 13 17 16 4
25 -22 14 -46 12 -60 -5z"/>
<path d="M2488 2334 c-13 -12 -9 -94 3 -91 6 1 12 -13 14 -31 1 -19 8 -39 14
-45 6 -6 11 -18 11 -26 0 -9 5 -23 10 -31 9 -13 11 -13 20 0 8 12 10 11 10 -6
0 -11 7 -29 15 -40 14 -19 14 -19 15 1 1 19 2 19 17 -2 8 -13 20 -23 25 -23 5
0 16 -7 25 -16 9 -8 22 -13 29 -10 7 3 16 1 19 -4 4 -6 11 -10 17 -10 5 0 1
15 -11 33 -11 17 -24 31 -28 30 -4 -1 -17 12 -27 29 -11 17 -22 26 -24 20 -7
-22 -20 -12 -27 18 -6 25 -9 29 -21 19 -11 -9 -16 -6 -24 16 -5 14 -10 31 -10
37 0 5 -7 8 -15 4 -10 -4 -15 1 -15 15 0 12 -6 35 -14 52 -8 18 -16 40 -18 50
-2 11 -6 15 -10 11z"/>
</g>
</svg>
