<svg viewBox="0 0 32 32" fill="none" xmlns="http://www.w3.org/2000/svg">
<path d="M0.66947 0.66947C1.5621 -0.223157 3.00933 -0.223157 3.90196 0.66947L16 12.7675L28.098 0.66947C28.9907 -0.223157 30.4379 -0.223157 31.3305 0.66947C32.2232 1.5621 32.2232 3.00933 31.3305 3.90196L19.2325 16L31.3305 28.098C32.2232 28.9907 32.2232 30.4379 31.3305 31.3305C30.4379 32.2232 28.9907 32.2232 28.098 31.3305L16 19.2325L3.90196 31.3305C3.00933 32.2232 1.5621 32.2232 0.66947 31.3305C-0.223157 30.4379 -0.223157 28.9907 0.66947 28.098L12.7675 16L0.66947 3.90196C-0.223157 3.00933 -0.223157 1.5621 0.66947 0.66947Z" fill="#0940A3"/>
</svg>
