<svg viewBox="0 0 37 37" fill="none" xmlns="http://www.w3.org/2000/svg">
<path fill-rule="evenodd" clip-rule="evenodd" d="M16.6299 1.05337C9.64628 1.72157 3.55618 6.58671 1.42202 13.2025C0.787659 15.1687 0.583593 16.5076 0.58897 18.666C0.601167 23.4793 2.42543 27.7441 5.94648 31.1907C7.29966 32.5153 8.74792 33.527 10.544 34.4024C12.8799 35.5409 15.1804 36.1248 17.8102 36.2464C21.5157 36.4178 25.6469 35.2043 28.7842 33.0231C32.5477 30.4064 35.0611 26.5665 36.0599 21.9074C36.4539 20.07 36.4534 17.1305 36.0587 15.2897C35.2692 11.6065 33.7478 8.7797 31.1428 6.15622C28.3254 3.31853 24.236 1.43879 20.0387 1.05169C18.3808 0.898809 18.2447 0.898939 16.6299 1.05337ZM25.8973 8.48234C26.1995 8.55697 26.2037 8.58189 26.2037 10.3051C26.2037 11.8177 26.1728 12.0754 25.9741 12.2239C25.8161 12.3419 25.2913 12.3966 24.2898 12.3995C22.3711 12.4049 21.861 12.6365 21.2856 13.7635C20.9048 14.5093 20.8907 14.6015 20.8459 16.6323L20.7996 18.7305H23.436C25.9787 18.7305 26.0725 18.7397 26.0725 18.987C26.0725 19.2409 25.5976 22.3999 25.4753 22.9592C25.4123 23.247 25.3904 23.2498 23.1192 23.2498H20.8266V29.5691C20.8266 33.7354 20.781 35.9161 20.6924 35.97C20.4936 36.091 17.0461 36.1015 16.4004 35.9831L15.843 35.8809V29.5653V23.2498H13.6135H11.384V20.9901V18.7305H13.5996H15.8152L15.8698 16.245C15.9159 14.1427 15.9717 13.5919 16.2315 12.6737C16.9166 10.2523 18.5946 8.79752 21.1545 8.40538C21.9416 8.28478 25.3197 8.33953 25.8973 8.48234Z" fill="#164290"/>
</svg>
