<svg width="1440" height="1278" viewBox="0 0 1440 1278" fill="none" xmlns="http://www.w3.org/2000/svg">
<path d="M-56.4569 144.965L-99.8886 138.44C-101.181 138.246 -102.491 138.203 -103.793 138.312C-112.002 138.999 -118.508 145.527 -119.167 153.739L-197.16 1125.5C-220.514 1416.48 9.32402 1665.5 301.237 1665.5L1074.66 1665.5C1346.4 1665.5 1568.4 1448.46 1574.53 1176.78L1589.23 525.168C1590.93 449.83 1519.76 393.998 1447 413.584L1342.62 454.657C1275.09 481.227 1199.93 480.789 1132.72 453.434C1091.54 436.676 1046.99 429.873 1002.69 433.58L926.29 439.972C887.908 443.184 849.611 432.88 818.022 410.843C780.766 384.852 734.449 375.353 689.97 384.583L683.999 385.822C636.521 395.673 587.076 385.876 546.942 358.665L519.018 339.732C490.758 320.572 456.786 311.674 422.762 314.52L406.965 315.842C374.387 318.568 342.204 307.194 318.574 284.604L311.998 278.317C292.549 259.724 266.061 250.363 239.248 252.606L223.93 253.888C201.498 255.765 179.66 246.063 166.015 228.16C148.48 205.151 117.991 196.267 90.8417 206.255L89.4039 206.783C64.3432 216.002 36.2064 209.697 17.4775 190.664L1.64247 174.571C-14.0055 158.669 -34.3946 148.279 -56.4569 144.965Z" fill="white"/>
</svg>
