<svg width="814" height="1716" viewBox="0 0 814 1716" fill="none" xmlns="http://www.w3.org/2000/svg">
<path d="M-308.307 143.009L-350.153 136.124C-351.468 135.907 -352.805 135.854 -354.134 135.965C-362.093 136.631 -368.379 142.999 -368.943 150.966L-442.342 1188.39C-462.739 1476.68 -235.188 1722.17 53.8186 1723.67L790.036 1727.49C1063.99 1728.91 1288.07 1509.61 1292.56 1235.68L1304 537.405C1305.2 463.736 1235.1 409.703 1164.17 429.63L1063.31 471.32C997.034 498.714 922.473 497.99 856.746 469.313C816.598 451.796 772.725 444.537 729.075 448.189L656.356 454.274C618.063 457.478 579.917 446.601 549.074 423.682C512.584 396.569 466.174 386.508 421.732 396.076L417.757 396.932C371.553 406.88 323.298 396.759 284.987 369.083L255.257 347.608C228.166 328.038 194.964 318.811 161.66 321.598L148.197 322.724C115.335 325.474 82.9508 313.481 59.8069 289.991L52.4343 282.508C33.9618 263.759 8.11389 254.186 -18.1147 256.381L-31.6149 257.511C-54.267 259.406 -76.4503 249.006 -89.7339 230.56C-106.668 207.046 -137.603 197.555 -164.636 207.991C-188.962 217.382 -216.556 211 -234.287 191.88L-251.109 173.742C-266.235 157.433 -286.358 146.62 -308.307 143.009Z" fill="white"/>
</svg>
