<svg viewBox="0 0 36 37" fill="none" xmlns="http://www.w3.org/2000/svg">
<path fill-rule="evenodd" clip-rule="evenodd" d="M14.3528 0.176888C7.04459 0.250499 6.09334 0.285361 5.55709 0.498833C2.37681 1.76522 0.5132 4.08939 0.100978 7.30342C-0.131105 9.11328 0.0747278 29.0315 0.336672 30.1006C0.988061 32.7602 3.17139 34.9629 6.01945 35.8338C6.80375 36.0737 7.51 36.086 18.0333 36.044C30.4122 35.9945 30.041 36.0205 31.838 35.0783C33.6376 34.1348 35.098 32.2897 35.7639 30.1179C36.0046 29.333 36.0169 28.6342 35.9773 18.104C35.9308 5.74841 35.955 6.09994 35.0293 4.33814C34.0937 2.55772 32.4811 1.21411 30.44 0.51425C29.3862 0.153 29.248 0.140777 25.95 0.117861C24.0785 0.104805 18.8597 0.131333 14.3528 0.176888ZM25.3226 5.39758C26.6153 5.67133 27.5896 6.16744 28.5437 7.03772C29.5674 7.97119 30.2972 9.11314 30.621 10.2874C30.8585 11.1488 30.8805 11.8198 30.8805 18.1734C30.8805 24.5045 30.8582 25.1915 30.6265 25.9512C29.9422 28.1965 28.035 30.0892 25.8499 30.6916C24.989 30.929 24.319 30.9512 18.0333 30.9512C11.7476 30.9512 11.0776 30.929 10.2168 30.6916C8.03167 30.0892 6.12445 28.1965 5.44014 25.9512C5.2082 25.1905 5.18611 24.5002 5.18611 18.0345C5.18611 11.4792 5.20542 10.8942 5.44598 10.1873C6.28945 7.70744 8.22959 5.93189 10.6722 5.40439C12.0222 5.11286 23.9522 5.1073 25.3226 5.39758ZM10.2181 7.46536C8.75042 8.07355 7.88736 8.96147 7.33875 10.4281C7.06014 11.1724 7.05278 11.4073 7.09111 18.3648L7.13056 25.5345L7.60264 26.4051C8.1457 27.4066 8.82389 28.0695 9.86861 28.6199L10.6028 29.0067H18.0333H25.4639L26.3344 28.5347C27.336 27.9916 27.9989 27.3134 28.5493 26.2687L28.9361 25.5345V18.104V10.6734L28.5493 9.93925C27.9989 8.89453 27.336 8.21633 26.3344 7.67328L25.4639 7.20119L18.2417 7.1673L11.0194 7.13328L10.2181 7.46536ZM26.5403 9.768C26.9697 10.2444 27.0214 10.7038 26.7125 11.3012C26.4515 11.8058 26.1133 11.9929 25.4624 11.9929C24.1092 11.9929 23.6237 10.0887 24.8076 9.42467C25.361 9.11439 26.0794 9.25675 26.5403 9.768ZM19.3504 11.3698C20.6631 11.6479 21.6381 12.1508 22.6112 13.0517C24.1764 14.5009 24.8697 16.0517 24.8697 18.104C24.8697 20.1077 24.1922 21.668 22.7169 23.0619C21.346 24.357 19.8662 24.9552 18.0333 24.9552C16.2004 24.9552 14.7207 24.357 13.3497 23.0619C11.8744 21.668 11.1969 20.1077 11.1969 18.104C11.1969 16.0517 11.8903 14.5009 13.4554 13.0517C14.409 12.169 15.4071 11.6456 16.6526 11.3756C17.8164 11.1233 18.1828 11.1224 19.3504 11.3698ZM16.4839 13.2897C15.0921 13.8086 14.1735 14.6145 13.4844 15.9216C13.1383 16.5781 13.1028 16.7815 13.1028 18.104C13.1028 19.4991 13.1232 19.6001 13.5749 20.4329C14.1179 21.4344 14.7961 22.0973 15.8408 22.6477C16.5089 22.9997 16.7062 23.0345 18.0333 23.0345C19.3604 23.0345 19.5578 22.9997 20.2258 22.6477C21.2705 22.0973 21.9487 21.4344 22.4918 20.4329C22.9435 19.6001 22.9639 19.4991 22.9639 18.104C22.9639 16.7769 22.929 16.5795 22.5771 15.9115C22.0247 14.8631 21.3614 14.1863 20.3622 13.6517C19.5904 13.2388 19.3499 13.1812 18.2417 13.1431C17.4279 13.1152 16.8144 13.1663 16.4839 13.2897Z" fill="#164290"/>
</svg>
