<svg viewBox="0 0 42 26" fill="none" xmlns="http://www.w3.org/2000/svg">
<path d="M0 2.16667C0 0.97005 1.17525 0 2.625 0H39.375C40.8247 0 42 0.97005 42 2.16667C42 3.36328 40.8247 4.33333 39.375 4.33333H2.625C1.17525 4.33333 0 3.36328 0 2.16667ZM0 13C0 11.8034 1.17525 10.8333 2.625 10.8333H39.375C40.8247 10.8333 42 11.8034 42 13C42 14.1966 40.8247 15.1667 39.375 15.1667H2.625C1.17525 15.1667 0 14.1966 0 13ZM0 23.8333C0 22.6367 1.17525 21.6667 2.625 21.6667H39.375C40.8247 21.6667 42 22.6367 42 23.8333C42 25.03 40.8247 26 39.375 26H2.625C1.17525 26 0 25.03 0 23.8333Z" fill="#0840A3"/>
</svg>
