<svg width="1440" height="136" viewBox="0 0 1440 136" fill="none" xmlns="http://www.w3.org/2000/svg">
<path d="M-393.467 105.826H-502.169C-528.342 105.826 -552.743 92.6012 -567.03 70.672C-600.581 19.1772 -563.629 -49 -502.169 -49H2014.66C2071.53 -49 2114.93 1.83198 2106.02 57.9979C2098.89 102.925 2060.15 136 2014.66 136H1899.89C1889.05 136 1878.23 135.224 1867.5 133.677L1751.68 116.977C1700.43 109.588 1648.34 110.204 1597.29 118.803L1576.86 122.243C1522.77 131.352 1467.55 131.499 1413.42 122.678L1387.51 118.458C1336.15 110.088 1283.79 109.79 1232.33 117.573L1193.32 123.474C1138.49 131.767 1082.66 130.881 1028.12 120.854L1016.86 118.783C970.121 110.189 922.395 108.302 875.123 113.18L770.803 123.945C744.642 126.644 718.308 127.275 692.048 125.832L447.574 112.398C418.911 110.823 390.166 111.719 361.657 115.077L240.254 129.375C203.045 133.757 165.354 131.518 128.926 122.761C112.851 118.897 96.4984 116.294 80.0179 114.977L-34.4893 105.826L-124.766 108.659C-153.851 109.572 -182.957 107.806 -211.718 103.384L-229.544 100.643C-266.896 94.9009 -304.918 95.0692 -342.218 101.142L-348.796 102.213C-363.565 104.618 -378.504 105.826 -393.467 105.826Z" fill="white"/>
</svg>
