<svg width="814" height="1804" viewBox="0 0 814 1804" fill="none" xmlns="http://www.w3.org/2000/svg">
<path d="M-525.589 631.018L-575.719 638.54C-576.798 638.701 -577.856 638.975 -578.878 639.357C-587.304 642.503 -591.361 652.077 -587.763 660.32L-401.625 1086.65C-362.265 1176.8 -294.825 1251.81 -209.359 1300.51L-136.549 1342L22.0142 1420.12C97.6508 1457.39 185.288 1461.89 264.347 1432.58L271.195 1430.04C330.698 1407.98 395.856 1406.36 456.38 1425.45C513.197 1443.37 574.196 1443.07 630.836 1424.59L677.823 1409.27C704.772 1400.48 732.94 1396 761.286 1396L779.751 1396C821.618 1396 862.52 1383.43 897.161 1359.92C934.847 1334.34 979.855 1321.77 1025.34 1324.12L1050.99 1325.44C1221.81 1334.25 1362.01 1191.95 1350.65 1021.28L1316.35 505.872C1311.18 428.206 1226.53 382.712 1158.91 421.252L1055.81 494.714C990.784 541.049 911.698 563.39 832.04 557.928C783.003 554.565 733.814 561.721 687.768 578.916L603.869 610.247C564.823 624.829 522.123 626.476 482.069 614.945C435.067 601.414 384.691 606.097 340.988 628.059L331.736 632.708C282.967 657.216 226.85 662.798 174.207 648.379L144.37 640.207C107.581 630.13 68.5534 631.889 32.8198 645.233L12.6442 652.767C-19.851 664.902 -55.848 663.548 -87.3403 649.008L-93.8625 645.996C-121.181 633.383 -152.407 632.209 -180.595 642.736L-199.462 649.781C-221.746 658.103 -246.677 655.149 -266.4 641.851C-291.409 624.989 -324.172 625.081 -349.086 642.082L-354.111 645.511C-378.859 662.399 -410.811 664.565 -437.612 651.171L-455.795 642.085C-477.367 631.304 -501.74 627.44 -525.589 631.018Z" fill="white"/>
</svg>
