<svg width="1440" height="1529" viewBox="0 0 1440 1529" fill="none" xmlns="http://www.w3.org/2000/svg">
<path d="M-258.589 630.018L-308.719 637.539C-309.798 637.701 -310.856 637.975 -311.878 638.357C-320.304 641.503 -324.361 651.077 -320.763 659.32L-167.722 1009.84C-117.519 1124.83 20.9243 1171.41 130.428 1110.17C172.853 1086.45 222.136 1078 270.041 1086.24L343.309 1098.85C388.142 1106.57 433.927 1106.99 478.894 1100.1L586.312 1083.64C630.241 1076.91 674.872 1076.07 719.024 1081.13L850.841 1096.26C932.36 1105.61 1014.93 1094.75 1091.26 1064.65L1167.77 1034.48C1203.76 1020.29 1242.11 1013 1280.8 1013L1338.99 1013C1483.05 1013 1597.93 892.677 1591.26 748.767L1579.96 505.063C1576.4 428.132 1492.82 382.12 1425.91 420.252L1322.81 493.714C1257.78 540.048 1178.7 562.39 1099.04 556.927C1050 553.565 1000.81 560.721 954.768 577.916L870.869 609.247C831.823 623.828 789.123 625.475 749.069 613.945C702.067 600.414 651.691 605.097 607.988 627.059L598.736 631.707C549.967 656.215 493.85 661.798 441.207 647.379L411.37 639.206C374.581 629.13 335.553 630.888 299.82 644.232L279.644 651.767C247.149 663.902 211.152 662.548 179.66 648.008L173.137 644.996C145.819 632.383 114.593 631.209 86.4052 641.735L67.5384 648.781C45.2543 657.102 20.3229 654.149 0.599904 640.851C-24.4091 623.989 -57.1718 624.081 -82.0863 641.082L-87.1111 644.511C-111.859 661.399 -143.811 663.564 -170.612 650.171L-188.795 641.084C-210.367 630.304 -234.74 626.439 -258.589 630.018Z" fill="white"/>
</svg>
