<svg viewBox="0 0 1440 181" fill="none" xmlns="http://www.w3.org/2000/svg">
<path d="M1291.68 83.0264L1396.75 69.646C1409.21 68.0586 1421.88 69.6561 1433.56 74.2894C1461.89 85.5284 1480.49 112.921 1480.49 143.401L1480.49 144.878C1480.49 187.142 1446.23 221.403 1403.97 221.403L-58.7646 221.403C-118.163 221.403 -166.481 173.565 -167.074 114.17C-167.694 52.1244 -116.167 2.2408 -54.1739 4.87059L-9.56714 6.76284C0.779881 7.20177 11.0542 8.70625 21.0926 11.2524L106.007 32.7903C153.429 44.8184 202.94 46.0908 250.917 36.5143C301.709 26.376 354.179 28.4046 404.037 42.4342L406.243 43.0551C454.96 56.7636 506.134 59.3472 555.983 50.6149L572.358 47.7466C621.577 39.1247 672.145 42.4014 719.84 57.3033C760.739 70.0816 803.823 74.3343 846.431 69.7985L904.306 63.6372C942.122 59.6115 980.274 59.9132 1018.02 64.5365L1171.34 83.3152C1211.31 88.2108 1251.74 88.1138 1291.68 83.0264Z" fill="white"/>
</svg>
